<svg width="203" height="20" viewBox="0 0 203 20" fill="none" xmlns="http://www.w3.org/2000/svg">
<g opacity="0.4">
<path fill-rule="evenodd" clip-rule="evenodd" d="M16.0844 17.8358C16.0853 17.835 16.0862 17.8343 16.0871 17.8336C16.0878 17.8342 16.0885 17.8347 16.0892 17.8353C18.3748 16.0033 19.8401 13.1761 19.8401 10.0038C19.8401 6.83029 18.3736 4.00205 16.0865 2.17012C13.7994 4.00205 12.3329 6.83029 12.3329 10.0038C12.3329 13.1763 13.7985 16.0038 16.0844 17.8358ZM15.4116 18.3295C13.0408 16.3477 11.5285 13.3535 11.5285 10.0038C11.5285 6.65169 13.0429 3.65564 15.4166 1.6739C13.8433 0.616398 11.9532 0 9.92029 0C4.44146 0 0 4.47715 0 10C0 15.5228 4.44146 20 9.92029 20C11.951 20 13.8392 19.3849 15.4116 18.3295ZM16.7619 18.3291C18.3344 19.3848 20.2228 20 22.2538 20C27.7327 20 32.1741 15.5228 32.1741 10C32.1741 4.47715 27.7327 0 22.2538 0C20.2207 0 18.3304 0.616562 16.7569 1.67432C19.1303 3.65606 20.6445 6.65193 20.6445 10.0038C20.6445 13.3533 19.1325 16.3473 16.7619 18.3291Z" fill="#979797"/>
<path d="M67.8175 17.0083H64.1201L66.4309 3.0003H70.1287L67.8175 17.0083ZM61.0096 3.0003L57.4846 12.6351L57.0675 10.5604L57.0679 10.5611L55.8238 4.26156C55.8238 4.26156 55.6734 3.0003 54.0699 3.0003H48.2425L48.1741 3.23749C48.1741 3.23749 49.9561 3.6032 52.0417 4.83861L55.254 17.0087H59.1064L64.9889 3.0003H61.0096ZM90.0916 17.0083H93.4866L90.5265 2.99993H87.5543C86.1818 2.99993 85.8475 4.04386 85.8475 4.04386L80.3331 17.0083H84.1874L84.9582 14.9276H89.6585L90.0916 17.0083ZM86.023 12.0532L87.9657 6.81106L89.0587 12.0532H86.023ZM80.6222 6.36891L81.1499 3.36077C81.1499 3.36077 79.5217 2.75 77.8244 2.75C75.9895 2.75 71.6323 3.541 71.6323 7.38736C71.6323 11.0063 76.7463 11.0512 76.7463 12.9521C76.7463 14.853 72.1592 14.5124 70.6453 13.3137L70.0956 16.459C70.0956 16.459 71.7466 17.25 74.269 17.25C76.7922 17.25 80.5986 15.9614 80.5986 12.4541C80.5986 8.81199 75.4387 8.47289 75.4387 6.88938C75.4391 5.3055 79.04 5.50896 80.6222 6.36891Z" fill="#979797"/>
<path d="M57.0679 10.5638L55.8238 4.26425C55.8238 4.26425 55.6733 3.00299 54.0699 3.00299H48.2425L48.1741 3.24018C48.1741 3.24018 50.975 3.81273 53.6615 5.95792C56.2303 8.00831 57.0679 10.5638 57.0679 10.5638Z" fill="#979797"/>
<path fill-rule="evenodd" clip-rule="evenodd" d="M123.292 2.99545V2.98932L127.89 2.99073V17.0107L123.292 17.0093V8.68872H122.924L120.352 17.0093H117.292L114.72 8.6826H114.353V17.0094L109.487 17.0093V2.98926L114.351 2.98932C114.351 2.98932 116.286 2.9832 116.8 4.82654C117.278 6.5474 118.637 11.316 118.637 11.316H119.005C119.042 11.1874 120.37 6.52291 120.842 4.83267C121.355 2.99305 123.278 2.99543 123.292 2.99545L123.292 2.99545ZM137.493 4.45916C138.1 3.10568 139.392 2.98932 139.392 2.98932L143.664 2.98932V17.0094H139.147V8.68266H138.78L135.72 15.5396C135.113 16.8869 133.76 17.0094 133.76 17.0094H129.597V2.98932H134.005V11.316H134.372L137.493 4.45916ZM145.416 17.0094V9.12572H160C159.345 10.9793 157.583 12.5408 155.501 12.5408H149.921V17.0094H145.416ZM145 3.00098H155.087C157.801 3.00098 160 4.858 160 7.14962C160 7.44227 159.969 7.72429 159.899 8.00098H152.125C151.485 8.00108 150.847 7.9295 150.228 7.78808C147.565 7.18149 145.504 5.32092 145 3.00098Z" fill="#979797"/>
<path fill-rule="evenodd" clip-rule="evenodd" d="M179.335 0C177.513 0 176.018 1.48624 176.018 3.33945V11.578C176.948 12.0367 177.914 12.3303 178.879 12.3303C180.027 12.3303 180.647 11.633 180.647 10.6789V6.78899H183.49V10.6606C183.49 12.1651 182.56 13.3945 179.408 13.3945C177.494 13.3945 176 12.9725 176 12.9725V20H180.866C182.688 20 184.182 18.5138 184.182 16.6606V0H179.335ZM197.517 0C195.695 0 194.2 1.48488 194.2 3.33639V6.8011H198.883C198.993 6.8011 199.12 6.8011 199.211 6.81943C200.268 6.87443 201.052 7.42438 201.052 8.37764C201.052 9.12924 200.523 9.77085 199.539 9.89917V9.93584C200.615 10.0092 201.435 10.6141 201.435 11.549C201.435 12.5573 200.523 13.2172 199.321 13.2172H194.182V20H199.047C200.87 20 202.364 18.5151 202.364 16.6636V0H197.517ZM195.892 12.0129H197.794C197.822 12.0129 197.867 12.0084 197.912 12.0038C197.958 11.9993 198.003 11.9948 198.03 11.9948C198.392 11.9223 198.7 11.5961 198.7 11.1432C198.7 10.7083 198.392 10.3822 198.03 10.2916C197.976 10.2734 197.867 10.2734 197.794 10.2734H195.892V12.0129ZM197.794 7.71698C198.157 7.77134 198.465 8.06125 198.465 8.49611C198.465 8.93098 198.157 9.22089 197.794 9.27525C197.776 9.29337 197.668 9.29337 197.613 9.29337H195.892V7.69886H197.613C197.643 7.69886 197.684 7.70435 197.721 7.70929C197.751 7.71332 197.778 7.71698 197.794 7.71698ZM185.091 3.33333C185.091 1.48352 186.585 0 188.408 0H193.273V16.6667C193.273 18.5165 191.779 20 189.957 20H185.091V12.3077C185.929 13.022 187.387 13.4799 189.738 13.37C191.013 13.315 192.344 12.967 192.344 12.967V11.5568C191.669 11.8864 190.868 12.2161 189.829 12.2894C188.043 12.4359 186.968 11.5568 186.968 10C186.968 8.46154 188.043 7.58242 189.829 7.71062C190.868 7.78388 191.669 8.09524 192.344 8.44322V7.03297C192.344 7.03297 190.995 6.68498 189.738 6.63004C187.387 6.52015 185.929 6.97802 185.091 7.69231V3.33333Z" fill="#979797"/>
</g>
</svg>
