<svg width="156" height="21" viewBox="0 0 156 21" fill="none" xmlns="http://www.w3.org/2000/svg">
<path d="M85.8338 4.19238C90.4786 4.19238 92.7248 6.35932 92.7248 10.199C92.7248 14.78 89.8504 16.6998 85.7767 16.6998H81.5127V4.19238H85.8338ZM85.7958 14.6659C88.8986 14.6659 90.4025 13.1453 90.4025 10.4271C90.4025 7.63288 88.9938 6.26428 85.8148 6.26428H83.778V14.6659H85.7958Z" fill="#006EFF"/>
<path d="M102.757 11.301H96.9891V14.6654H103.614V16.7183H94.7429V4.19189H103.404V6.24479H96.9701V9.22908H102.738V11.301H102.757Z" fill="#006EFF"/>
<path d="M109.705 16.7183L104.546 4.19189H106.945L110.847 13.9621L114.73 4.19189H116.996L111.913 16.7183H109.705Z" fill="#006EFF"/>
<path d="M120.631 16.7183H118.385V4.19189H120.631V16.7183Z" fill="#006EFF"/>
<path d="M133.918 15.3308C133.29 16.0912 131.653 16.9085 129.483 16.9085C125.39 16.8895 122.668 14.4755 122.668 10.4267C122.668 6.64407 125.352 3.98291 129.502 3.98291C131.463 3.98291 132.929 4.59117 133.652 5.1044V8.22175C132.89 7.11927 131.387 6.0358 129.502 6.0358C126.761 6.0358 125.086 7.80357 125.086 10.4267C125.086 12.8598 126.571 14.7796 129.464 14.8176C131.653 14.8176 133.195 13.8102 133.918 12.5556V15.3308Z" fill="#006EFF"/>
<path d="M143.874 11.301H138.106V14.6654H144.731V16.7183H135.86V4.19189H144.521V6.24479H138.087V9.22908H143.855V11.301H143.874Z" fill="#006EFF"/>
<path d="M151.298 6.05481C149.547 6.07382 148.804 6.60605 148.804 7.46142C148.804 10.0465 156 8.22175 156 13.1069C156 15.2168 154.477 16.8895 151.108 16.8895C148.919 16.8895 147.186 16.0722 146.52 15.3118V12.5746C147.281 13.8482 148.919 14.8366 151.127 14.8366C152.878 14.8366 153.697 14.2284 153.697 13.2019C153.697 10.5598 146.52 12.4986 146.52 7.49944C146.52 5.27547 148.29 3.98291 151.279 3.98291C153.221 4.00192 154.667 4.57217 155.372 5.1044V8.20274C154.667 7.10027 153.145 6.0358 151.298 6.05481Z" fill="#006EFF"/>
<path d="M17.1047 2.34378C16.9232 2.47634 16.7472 2.60619 16.5711 2.73604C16.0917 3.08772 15.6123 3.4394 15.1329 3.79378C15.0841 3.82895 15.0543 3.82624 15.0056 3.79378C14.1009 3.18781 13.1123 2.78473 12.0424 2.57913C11.3788 2.45199 10.7098 2.40871 10.0354 2.44928C9.02242 2.5115 8.05276 2.75497 7.12915 3.1824C6.35722 3.54219 5.65841 4.0102 5.03274 4.58912C4.38269 5.19238 3.84369 5.88221 3.41845 6.65861C2.98509 7.45124 2.69256 8.29527 2.54359 9.18529C2.42984 9.867 2.40275 10.5514 2.47046 11.2386C2.64381 13.0348 3.33449 14.6039 4.55062 15.9348C5.73967 17.2387 7.21041 18.0638 8.94116 18.4182C9.63997 18.5616 10.3496 18.6076 11.0619 18.5535C12.9146 18.4155 14.537 17.7338 15.9184 16.4921C17.1697 15.3694 17.9904 13.9816 18.3831 12.345C18.5402 11.6903 18.6079 11.0275 18.5944 10.3539C18.5944 10.3134 18.6025 10.2836 18.6377 10.2566C19.3636 9.72363 20.0868 9.1907 20.8127 8.65777C20.8262 8.64965 20.8398 8.64154 20.8614 8.62531C20.8804 8.74434 20.9021 8.85796 20.9183 8.97158C21.0077 9.56672 21.0429 10.1673 21.0267 10.7705C20.9969 11.904 20.7937 13.0024 20.4064 14.0682C19.9324 15.3721 19.2282 16.5354 18.2965 17.5607C17.3701 18.5778 16.2867 19.384 15.0435 19.9791C14.1551 20.4038 13.2207 20.696 12.2483 20.8583C11.5116 20.9801 10.7694 21.0233 10.0219 20.9882C8.79761 20.9314 7.61669 20.669 6.48452 20.201C5.45256 19.7735 4.51541 19.1946 3.67035 18.4696C2.54901 17.512 1.66874 16.365 1.02952 15.0367C0.615114 14.1764 0.328009 13.2729 0.162788 12.3315C0.0219445 11.5442 -0.0268092 10.7516 0.0138188 9.95628C0.0869494 8.57932 0.414683 7.26729 1.00514 6.02018C1.47914 5.01925 2.09668 4.113 2.85778 3.30684C3.75702 2.35731 4.7971 1.59714 5.97531 1.02904C6.85288 0.609732 7.77107 0.317568 8.72989 0.152549C9.50995 0.0172883 10.2981 -0.0287005 11.089 0.0172883C12.4216 0.0903293 13.6974 0.40143 14.9108 0.961411C15.6854 1.3185 16.4005 1.76757 17.0614 2.30591C17.0722 2.31402 17.0857 2.32484 17.1047 2.34378Z" fill="#333F48"/>
<path d="M10.5148 13.2269C10.29 13.0862 10.0652 12.9428 9.8404 12.8022C8.76511 12.1259 7.69253 11.4496 6.61724 10.7787C6.54681 10.7354 6.51702 10.6894 6.51702 10.6028C6.51973 9.67223 6.51973 8.74163 6.51973 7.81104C6.51973 7.78128 6.51973 7.75423 6.51973 7.70824C6.58744 7.74882 6.64161 7.78128 6.69578 7.81645C7.94713 8.59555 9.19576 9.37736 10.4444 10.1592C10.5067 10.197 10.5392 10.1835 10.5907 10.1483C12.7656 8.54956 14.9379 6.95078 17.1128 5.35199C17.6627 4.9462 18.2125 4.54313 18.765 4.13734C18.784 4.12382 18.8002 4.113 18.8273 4.09406C18.9411 4.25096 19.0548 4.40516 19.1632 4.56206C19.5045 5.05712 19.8024 5.57382 20.0597 6.11757C20.0841 6.17167 20.076 6.19331 20.0299 6.22578C18.226 7.55133 16.4221 8.8796 14.621 10.2052C13.2748 11.1953 11.9287 12.1854 10.5852 13.1755C10.5609 13.1944 10.5392 13.2107 10.5148 13.2269Z" fill="#333F48"/>
<path d="M32.5521 9.36222C31.1054 9.02007 29.849 8.71593 29.849 7.7085C29.849 6.35891 31.5242 6.20684 32.2475 6.20684C33.2374 6.20684 33.8085 6.3399 34.5509 6.68205C34.9126 6.41593 36.5496 5.1994 36.5496 5.1994C35.4646 4.51511 33.8465 3.96387 32.2666 3.96387C28.4975 3.96387 27.165 5.95974 27.165 7.84155C27.165 10.5407 29.5064 11.092 31.5813 11.5862C33.028 11.9283 34.2844 12.2325 34.2844 13.2589C34.2844 13.7911 33.9608 14.6655 31.8668 14.6655C30.4582 14.6655 28.9353 14.1713 27.8502 13.373L26.9365 15.4639C28.0406 16.3192 29.9632 16.8895 31.8668 16.8895C34.9887 16.8895 37.0065 15.3688 37.0065 13.0308C36.9875 10.4077 34.627 9.85643 32.5521 9.36222Z" fill="#333F48"/>
<path d="M48.4281 10.2561L48.2948 10.218L48.409 10.161C49.437 9.60977 50.008 8.64035 50.008 7.44283C50.008 5.42795 48.2948 4.21143 45.4204 4.21143H39.4812V16.6999H45.763C48.8849 16.6999 50.6172 15.5023 50.6172 13.3164C50.6362 11.8337 49.8177 10.7123 48.4281 10.2561ZM42.2033 6.28333H45.0777C46.8862 6.28333 47.2669 7.11969 47.2669 7.80399C47.2669 8.81143 46.5054 9.32465 45.0777 9.32465H42.2033V6.28333ZM42.2033 9.34366H45.0777H42.2033ZM45.5727 14.628H42.2033V11.4156H45.5727C47.1146 11.4156 47.8951 11.9478 47.8951 13.0123C47.8951 14.0957 47.1336 14.628 45.5727 14.628Z" fill="#333F48"/>
<path d="M59.792 6.28329L62.6093 4.19238H53.1484V16.6998H62.6093V14.6279H55.8515V11.4155H61.6194V9.34362H55.8515V6.28329H59.792Z" fill="#333F48"/>
<path d="M75.8209 16.6998L73.0608 12.6321C74.6788 11.9287 75.6116 10.5221 75.6116 8.65932C75.6116 5.90313 73.5747 4.19238 70.2815 4.19238H65.1228V16.6998H67.8259V13.1643H70.2815C70.3577 13.1643 70.4338 13.1643 70.5099 13.1643L72.9275 16.6998H75.8209ZM67.8259 6.28329H70.2244C71.9567 6.28329 72.9085 7.13866 72.9085 8.67833C72.9085 10.218 71.9567 11.0734 70.2244 11.0734H67.8259V6.28329Z" fill="#333F48"/>
</svg>
