<svg width="94" height="22" viewBox="0 0 94 22" fill="none" xmlns="http://www.w3.org/2000/svg">
<rect width="94" height="22" rx="4" fill="#979797"/>
<path d="M8.075 14.8V17.95H9.335V16H17.66V17.95H18.92V14.8H17.57V5.5H10.52L10.49 7.675C10.445 10.915 9.935 13.345 9.335 14.8H8.075ZM11.69 7.72L11.705 6.7H16.22V14.8H10.61C11.225 13.12 11.63 10.51 11.69 7.72ZM20.0739 12.22C20.0739 14.845 21.4239 16.135 23.7939 16.15C25.9089 16.15 27.4989 14.875 27.4989 12.28C27.4989 9.67 26.1339 8.365 23.7789 8.35C21.6639 8.35 20.0739 9.625 20.0739 12.22ZM21.3339 12.22C21.3339 10.375 22.2039 9.43 23.7789 9.43C25.3539 9.445 26.2389 10.33 26.2389 12.235V12.28C26.2389 14.125 25.3689 15.07 23.7939 15.07C22.2039 15.07 21.3339 14.185 21.3339 12.265V12.22ZM35.0905 15.235V13.78C34.7155 14.5 33.8905 15.07 32.6455 15.07C31.0555 15.07 30.1705 14.185 30.1705 12.265V12.22C30.1705 10.375 31.0405 9.43 32.6155 9.43C33.6355 9.43 34.5055 10 35.0155 10.84V9.07C34.5205 8.695 33.6205 8.35 32.6155 8.35C30.5005 8.35 28.9105 9.625 28.9105 12.22C28.9105 14.845 30.2755 16.15 32.6455 16.15C33.9205 16.15 34.7455 15.7 35.0905 15.235ZM39.0155 16H40.2605V9.61H42.7505V8.5H36.5105V9.61H39.0155V16ZM44.5929 10.84C45.1029 10 45.9729 9.43 47.1429 9.43C48.2229 9.43 48.9729 9.79 48.9729 11.065V11.665H47.1879C45.1929 11.665 44.0229 12.145 44.0229 13.795C44.0229 15.325 45.0129 16.12 46.4979 16.12C47.6829 16.12 48.6429 15.55 49.0329 14.725V16H50.2179V11.05C50.2179 8.995 49.0629 8.35 47.1429 8.35C45.9879 8.35 45.0879 8.695 44.5929 9.07V10.84ZM46.8129 14.965C45.8079 14.965 45.2979 14.455 45.2979 13.72C45.2979 12.865 45.8829 12.655 47.2329 12.655H48.9729V13.465C48.8979 13.975 48.3429 14.965 46.8129 14.965ZM52.6502 16H55.9352C57.9752 16 58.9202 15.265 58.9202 13.78C58.9202 12.46 58.2152 12.07 57.2552 11.95C58.0652 11.755 58.5452 11.14 58.5452 10.195C58.5452 9.115 57.9002 8.5 55.9952 8.5H52.6502V16ZM53.8952 14.92V12.655H56.1452C57.0902 12.655 57.6752 12.895 57.6752 13.795C57.6752 14.545 57.1502 14.92 55.9202 14.92H53.8952ZM53.8952 11.59V9.595L55.8452 9.58C56.7902 9.58 57.2852 9.745 57.2852 10.48C57.2852 11.305 56.6702 11.59 55.7402 11.59H53.8952ZM65.8347 16H67.0797V8.5H61.7997L61.7697 9.535C61.6197 14.515 61.0347 14.725 60.2697 14.725C60.1647 14.725 60.0297 14.71 59.8947 14.68V16.015C60.0447 16.06 60.2547 16.09 60.4947 16.09C61.5897 16.09 62.7147 15.775 62.9097 10.18L62.9247 9.61H65.8347V16ZM72.7698 8.35C70.6548 8.35 69.0648 9.625 69.0648 12.22C69.0648 14.845 70.4298 16.15 72.7998 16.15C74.2698 16.15 75.1848 15.7 75.5598 15.235V13.78C75.1548 14.5 74.2398 15.07 72.7998 15.07C71.3298 15.07 70.4598 14.32 70.3398 12.7H76.0848V11.89C76.0848 9.67 74.8398 8.35 72.7698 8.35ZM72.7698 9.43C73.9548 9.43 74.8398 10.18 74.8398 11.62V11.635H70.3548C70.5198 10.18 71.3598 9.43 72.7698 9.43ZM83.2661 16H84.5111V8.5H83.2661V11.635H79.3061V8.5H78.0611V16H79.3061V12.76H83.2661V16Z" fill="white"/>
</svg>
