<svg width="149" height="22" viewBox="0 0 149 22" fill="none" xmlns="http://www.w3.org/2000/svg">
<rect width="149" height="22" rx="4" fill="#09A552"/>
<path d="M17.225 16H18.575V5.5H9.5V16H10.85V6.7H17.225V16ZM21.4203 18.7H22.6653V14.845C23.0853 15.55 23.9703 16.165 25.2303 16.165C27.3753 16.165 28.6503 15.04 28.6503 12.085C28.6503 9.46 27.3753 8.35 25.3803 8.35C23.8653 8.35 22.9803 9.07 22.6053 9.94V8.5H21.4203V18.7ZM22.6653 11.845C22.6953 10.345 23.4903 9.475 25.0503 9.475C26.4603 9.475 27.3903 10.15 27.3903 12.16C27.3903 14.245 26.6853 15.04 25.0353 15.04C23.6253 15.04 22.6653 14.125 22.6653 12.565V11.845ZM31.7037 16L31.8387 15.82L35.9187 10.375V16H37.1637V8.5H36.0687L31.8387 14.08V8.5H30.5937V16H31.7037ZM44.9136 16H46.1586V8.5H44.9136V11.635H40.9536V8.5H39.7086V16H40.9536V12.76H44.9136V16ZM53.3112 16H54.5562V8.5H51.7512C49.3812 8.5 48.4512 9.205 48.4512 11.14C48.4512 12.22 49.0512 12.895 50.0262 13.165L47.8812 16H49.3212L51.3612 13.3H53.3112V16ZM51.7662 9.61H53.3112V12.325H51.3162C50.1762 12.325 49.7112 11.845 49.6962 11.14C49.6962 9.91 50.3262 9.61 51.7662 9.61ZM58.7833 16H60.0283V9.61H62.5183V8.5H56.2783V9.61H58.7833V16ZM69.3971 16L69.5321 15.82L73.6121 10.375V16H74.8571V8.5H73.7621L69.5321 14.08V8.5H68.2871V16H69.3971ZM80.8784 12.22C80.8784 14.845 82.2284 16.135 84.5984 16.15C86.7134 16.15 88.3034 14.875 88.3034 12.28C88.3034 9.67 86.9384 8.365 84.5834 8.35C82.4684 8.35 80.8784 9.625 80.8784 12.22ZM82.1384 12.22C82.1384 10.375 83.0084 9.43 84.5834 9.43C86.1584 9.445 87.0434 10.33 87.0434 12.235V12.28C87.0434 14.125 86.1734 15.07 84.5984 15.07C83.0084 15.07 82.1384 14.185 82.1384 12.265V12.22ZM95.37 16H96.615V8.5H90.285V16H91.53V9.61H95.37V16ZM104.055 16H105.3V8.5H100.02L99.9904 9.535C99.8404 14.515 99.2554 14.725 98.4904 14.725C98.3854 14.725 98.2504 14.71 98.1154 14.68V16.015C98.2654 16.06 98.4754 16.09 98.7154 16.09C99.8104 16.09 100.935 15.775 101.13 10.18L101.145 9.61H104.055V16ZM107.975 10.84C108.485 10 109.355 9.43 110.525 9.43C111.605 9.43 112.355 9.79 112.355 11.065V11.665H110.57C108.575 11.665 107.405 12.145 107.405 13.795C107.405 15.325 108.395 16.12 109.88 16.12C111.065 16.12 112.025 15.55 112.415 14.725V16H113.6V11.05C113.6 8.995 112.445 8.35 110.525 8.35C109.37 8.35 108.47 8.695 107.975 9.07V10.84ZM110.195 14.965C109.19 14.965 108.68 14.455 108.68 13.72C108.68 12.865 109.265 12.655 110.615 12.655H112.355V13.465C112.28 13.975 111.725 14.965 110.195 14.965ZM120.593 16H121.838V8.5H120.593V12.175C120.083 12.4 119.393 12.535 118.733 12.535C117.503 12.535 116.903 11.98 116.903 10.915V8.5H115.658V11.05C115.658 12.85 116.738 13.66 118.643 13.66C119.303 13.66 120.068 13.525 120.593 13.24V16ZM127.521 8.35C125.406 8.35 123.816 9.625 123.816 12.22C123.816 14.845 125.181 16.15 127.551 16.15C129.021 16.15 129.936 15.7 130.311 15.235V13.78C129.906 14.5 128.991 15.07 127.551 15.07C126.081 15.07 125.211 14.32 125.091 12.7H130.836V11.89C130.836 9.67 129.591 8.35 127.521 8.35ZM127.521 9.43C128.706 9.43 129.591 10.18 129.591 11.62V11.635H125.106C125.271 10.18 126.111 9.43 127.521 9.43ZM138.017 16H139.262V8.5H138.017V11.635H134.057V8.5H132.812V16H134.057V12.76H138.017V16Z" fill="white"/>
</svg>
